<svg xmlns="http://www.w3.org/2000/svg" viewBox="0 0 1440 320">
  <path fill="#f12c56" fill-opacity="1" d="M0,96L20,128C40,160,80,224,120,256C160,288,200,288,240,261.3C280,235,320,181,360,138.7C400,96,440,64,480,58.7C520,53,560,75,600,101.3C640,128,680,160,720,192C760,224,800,256,840,272C880,288,920,288,960,245.3C1000,203,1040,117,1080,69.3C1120,21,1160,11,1200,16C1240,21,1280,43,1320,80C1360,117,1400,171,1420,197.3L1440,224L1440,0L1420,0C1400,0,1360,0,1320,0C1280,0,1240,0,1200,0C1160,0,1120,0,1080,0C1040,0,1000,0,960,0C920,0,880,0,840,0C800,0,760,0,720,0C680,0,640,0,600,0C560,0,520,0,480,0C440,0,400,0,360,0C320,0,280,0,240,0C200,0,160,0,120,0C80,0,40,0,20,0L0,0Z"></path>
</svg>