<svg id="visual" viewBox="0 0 900 600" width="900" height="600" xmlns="http://www.w3.org/2000/svg" xmlns:xlink="http://www.w3.org/1999/xlink" version="1.1"><rect x="0" y="0" width="900" height="600" fill="#6fbbf9"></rect><path d="M0 298L4.8 278.5C9.7 259 19.3 220 29 218.8C38.7 217.7 48.3 254.3 58 307.3C67.7 360.3 77.3 429.7 87 415.8C96.7 402 106.3 305 116 262.8C125.7 220.7 135.3 233.3 145 249.3C154.7 265.3 164.3 284.7 174 288.3C183.7 292 193.3 280 203 325.8C212.7 371.7 222.3 475.3 232 474.8C241.7 474.3 251.3 369.7 261 297.8C270.7 226 280.3 187 290 223.3C299.7 259.7 309.3 371.3 319 358C328.7 344.7 338.3 206.3 348 126.8C357.7 47.3 367.3 26.7 377 62.3C386.7 98 396.3 190 406 283.3C415.7 376.7 425.3 471.3 435.2 507.7C445 544 455 522 464.8 439.8C474.7 357.7 484.3 215.3 494 136.2C503.7 57 513.3 41 523 89.2C532.7 137.3 542.3 249.7 552 285.7C561.7 321.7 571.3 281.3 581 257.2C590.7 233 600.3 225 610 232.5C619.7 240 629.3 263 639 266.8C648.7 270.7 658.3 255.3 668 248.7C677.7 242 687.3 244 697 213C706.7 182 716.3 118 726 163.8C735.7 209.7 745.3 365.3 755 370C764.7 374.7 774.3 228.3 784 167.5C793.7 106.7 803.3 131.3 813 197.5C822.7 263.7 832.3 371.3 842 375.2C851.7 379 861.3 279 871 263.7C880.7 248.3 890.3 317.7 895.2 352.3L900 387L900 601L895.2 601C890.3 601 880.7 601 871 601C861.3 601 851.7 601 842 601C832.3 601 822.7 601 813 601C803.3 601 793.7 601 784 601C774.3 601 764.7 601 755 601C745.3 601 735.7 601 726 601C716.3 601 706.7 601 697 601C687.3 601 677.7 601 668 601C658.3 601 648.7 601 639 601C629.3 601 619.7 601 610 601C600.3 601 590.7 601 581 601C571.3 601 561.7 601 552 601C542.3 601 532.7 601 523 601C513.3 601 503.7 601 494 601C484.3 601 474.7 601 464.8 601C455 601 445 601 435.2 601C425.3 601 415.7 601 406 601C396.3 601 386.7 601 377 601C367.3 601 357.7 601 348 601C338.3 601 328.7 601 319 601C309.3 601 299.7 601 290 601C280.3 601 270.7 601 261 601C251.3 601 241.7 601 232 601C222.3 601 212.7 601 203 601C193.3 601 183.7 601 174 601C164.3 601 154.7 601 145 601C135.3 601 125.7 601 116 601C106.3 601 96.7 601 87 601C77.3 601 67.7 601 58 601C48.3 601 38.7 601 29 601C19.3 601 9.7 601 4.8 601L0 601Z" fill="#f12c56" stroke-linecap="round" stroke-linejoin="miter"></path></svg>