<svg id="visual" viewBox="0 0 900 600" width="900" height="600" xmlns="http://www.w3.org/2000/svg" xmlns:xlink="http://www.w3.org/1999/xlink" version="1.1"><path d="M0 95L18.8 86.7C37.7 78.3 75.3 61.7 112.8 75.3C150.3 89 187.7 133 225.2 191.2C262.7 249.3 300.3 321.7 337.8 296.5C375.3 271.3 412.7 148.7 450.2 110.2C487.7 71.7 525.3 117.3 562.8 207.3C600.3 297.3 637.7 431.7 675.2 479.3C712.7 527 750.3 488 787.8 421.8C825.3 355.7 862.7 262.3 881.3 215.7L900 169L900 0L881.3 0C862.7 0 825.3 0 787.8 0C750.3 0 712.7 0 675.2 0C637.7 0 600.3 0 562.8 0C525.3 0 487.7 0 450.2 0C412.7 0 375.3 0 337.8 0C300.3 0 262.7 0 225.2 0C187.7 0 150.3 0 112.8 0C75.3 0 37.7 0 18.8 0L0 0Z" fill="#008cff" stroke-linecap="round" stroke-linejoin="miter"></path></svg>