<svg id="visual" viewBox="0 0 900 600" width="900" height="600" xmlns="http://www.w3.org/2000/svg" xmlns:xlink="http://www.w3.org/1999/xlink" version="1.1"><path d="M0 503L18.8 511.3C37.7 519.7 75.3 536.3 112.8 522.7C150.3 509 187.7 465 225.2 406.8C262.7 348.7 300.3 276.3 337.8 301.5C375.3 326.7 412.7 449.3 450.2 487.8C487.7 526.3 525.3 480.7 562.8 390.7C600.3 300.7 637.7 166.3 675.2 118.7C712.7 71 750.3 110 787.8 176.2C825.3 242.3 862.7 335.7 881.3 382.3L900 429L900 601L881.3 601C862.7 601 825.3 601 787.8 601C750.3 601 712.7 601 675.2 601C637.7 601 600.3 601 562.8 601C525.3 601 487.7 601 450.2 601C412.7 601 375.3 601 337.8 601C300.3 601 262.7 601 225.2 601C187.7 601 150.3 601 112.8 601C75.3 601 37.7 601 18.8 601L0 601Z" fill="#008cff" stroke-linecap="round" stroke-linejoin="miter"></path></svg>