<svg id="visual" viewBox="0 0 900 600" width="900" height="600" xmlns="http://www.w3.org/2000/svg" xmlns:xlink="http://www.w3.org/1999/xlink" version="1.1"><rect x="0" y="0" width="900" height="600" fill="#6fbbf9"></rect><g transform="translate(340.55403975550877 285.292816)"><path d="M121.6 -194C164.9 -185.7 212.4 -167.8 231.5 -133.9C250.5 -100 241.3 -50 232.5 -5.1C223.7 39.8 215.3 79.7 200.2 120.4C185 161.1 163 202.6 128.5 219.2C94 235.8 47 227.4 0.4 226.7C-46.2 226 -92.3 232.9 -119.4 212.1C-146.5 191.2 -154.4 142.5 -168.8 102.5C-183.3 62.5 -204.1 31.3 -212.1 -4.6C-220.1 -40.5 -215.3 -81 -194.2 -109.4C-173.1 -137.9 -135.8 -154.2 -100.7 -167.3C-65.7 -180.4 -32.8 -190.2 3.2 -195.7C39.2 -201.2 78.3 -202.3 121.6 -194" fill="#f12c56"></path></g></svg>