<svg id="visual" viewBox="0 0 900 600" width="900" height="600" xmlns="http://www.w3.org/2000/svg" xmlns:xlink="http://www.w3.org/1999/xlink" version="1.1"><rect x="0" y="0" width="900" height="600" fill="#002233"></rect><path d="M0 405L21.5 400.8C43 396.7 86 388.3 128.8 359C171.7 329.7 214.3 279.3 257.2 244C300 208.7 343 188.3 385.8 195C428.7 201.7 471.3 235.3 514.2 274.5C557 313.7 600 358.3 642.8 375.7C685.7 393 728.3 383 771.2 369.2C814 355.3 857 337.7 878.5 328.8L900 320L900 0L878.5 0C857 0 814 0 771.2 0C728.3 0 685.7 0 642.8 0C600 0 557 0 514.2 0C471.3 0 428.7 0 385.8 0C343 0 300 0 257.2 0C214.3 0 171.7 0 128.8 0C86 0 43 0 21.5 0L0 0Z" fill="#0066FF" stroke-linecap="round" stroke-linejoin="miter"></path></svg>